<svg width="1440" height="3200" viewBox="0 0 1440 3200" fill="none" xmlns="http://www.w3.org/2000/svg">
  <defs>
    <linearGradient id="sky" x1="220" y1="50" x2="1240" y2="650" gradientUnits="userSpaceOnUse">
      <stop stop-color="#171319"/><stop offset=".44" stop-color="#21171A"/><stop offset=".72" stop-color="#4A271F"/><stop offset="1" stop-color="#131216"/>
    </linearGradient>
    <radialGradient id="sunGlow" cx="0" cy="0" r="1" gradientTransform="translate(1115 290) rotate(100) scale(280 330)" gradientUnits="userSpaceOnUse">
      <stop stop-color="#FF7E55" stop-opacity=".55"/><stop offset="1" stop-color="#B94B33" stop-opacity="0"/>
    </radialGradient>
    <linearGradient id="shade" x1="0" y1="300" x2="1360" y2="340" gradientUnits="userSpaceOnUse">
      <stop stop-color="#09090B"/><stop offset=".19" stop-color="#09090B" stop-opacity=".96"/><stop offset=".45" stop-color="#09090B" stop-opacity=".62"/><stop offset=".72" stop-color="#09090B" stop-opacity=".06"/><stop offset="1" stop-color="#09090B" stop-opacity=".18"/>
    </linearGradient>
    <linearGradient id="bottomShade" x1="720" y1="320" x2="720" y2="672" gradientUnits="userSpaceOnUse">
      <stop stop-color="#09090B" stop-opacity="0"/><stop offset="1" stop-color="#09090B"/>
    </linearGradient>
    <linearGradient id="avatarA" x1="0" y1="0" x2="1" y2="1"><stop stop-color="#E1A17D" offset="0"/><stop stop-color="#E1A17D" offset=".42"/><stop stop-color="#33273B" offset=".43"/></linearGradient>
    <linearGradient id="avatarB" x1="0" y1="0" x2="1" y2="1"><stop stop-color="#C88768" offset="0"/><stop stop-color="#C88768" offset=".42"/><stop stop-color="#21424D" offset=".43"/></linearGradient>
    <linearGradient id="avatarC" x1="0" y1="0" x2="1" y2="1"><stop stop-color="#D9B386" offset="0"/><stop stop-color="#D9B386" offset=".42"/><stop stop-color="#5A2932" offset=".43"/></linearGradient>
    <linearGradient id="p1" x1="0" y1="0" x2="1" y2="1"><stop stop-color="#A5493E"/><stop offset=".53" stop-color="#E3A36F"/><stop offset=".54" stop-color="#18313B"/><stop offset="1" stop-color="#091015"/></linearGradient>
    <linearGradient id="p2" x1="0" y1="0" x2="1" y2="1"><stop stop-color="#34243B"/><stop offset=".55" stop-color="#75628B"/><stop offset=".56" stop-color="#17151D"/><stop offset="1" stop-color="#0D0D12"/></linearGradient>
    <linearGradient id="p3" x1="0" y1="0" x2="0" y2="1"><stop stop-color="#E8C7A9"/><stop offset="1" stop-color="#6C282B"/></linearGradient>
    <linearGradient id="p4" x1="0" y1="0" x2="1" y2="1"><stop stop-color="#18252E"/><stop offset=".54" stop-color="#3D6D73"/><stop offset="1" stop-color="#D26C45"/></linearGradient>
    <linearGradient id="p5" x1="0" y1="0" x2="1" y2="1"><stop stop-color="#7D3946"/><stop offset=".62" stop-color="#2A1A2B"/><stop offset="1" stop-color="#111116"/></linearGradient>
    <linearGradient id="wide1" x1="0" y1="0" x2="1" y2="1"><stop stop-color="#7E3F34"/><stop offset=".52" stop-color="#C78359"/><stop offset=".53" stop-color="#17242A"/><stop offset="1" stop-color="#090D11"/></linearGradient>
    <linearGradient id="wide2" x1="0" y1="0" x2="1" y2="1"><stop stop-color="#202F36"/><stop offset=".48" stop-color="#54747C"/><stop offset="1" stop-color="#17171C"/></linearGradient>
    <linearGradient id="wide3" x1="0" y1="0" x2="1" y2="1"><stop stop-color="#231C2C"/><stop offset=".56" stop-color="#715269"/><stop offset="1" stop-color="#C56745"/></linearGradient>
    <linearGradient id="wide4" x1="0" y1="0" x2="1" y2="1"><stop stop-color="#5B262E"/><stop offset=".5" stop-color="#2D1725"/><stop offset="1" stop-color="#0D1015"/></linearGradient>
    <linearGradient id="feature" x1="60" y1="1450" x2="1390" y2="1900" gradientUnits="userSpaceOnUse"><stop stop-color="#12131A"/><stop offset=".42" stop-color="#292237"/><stop offset=".72" stop-color="#5A3040"/><stop offset="1" stop-color="#151216"/></linearGradient>
    <linearGradient id="featureShade" x1="610" y1="1680" x2="1355" y2="1680" gradientUnits="userSpaceOnUse"><stop stop-color="#121216" stop-opacity="0"/><stop offset=".45" stop-color="#121216" stop-opacity=".6"/><stop offset=".72" stop-color="#121216" stop-opacity=".95"/><stop offset="1" stop-color="#121216"/></linearGradient>
    <linearGradient id="listA" x1="0" y1="0" x2="1" y2="1"><stop stop-color="#D9815B"/><stop offset=".48" stop-color="#512737"/><stop offset="1" stop-color="#141318"/></linearGradient>
    <linearGradient id="listB" x1="0" y1="0" x2="1" y2="1"><stop stop-color="#223A42"/><stop offset=".56" stop-color="#47777D"/><stop offset="1" stop-color="#D88B5F"/></linearGradient>
    <linearGradient id="listC" x1="0" y1="0" x2="1" y2="1"><stop stop-color="#17131D"/><stop offset=".48" stop-color="#5C496A"/><stop offset="1" stop-color="#A06B68"/></linearGradient>
    <filter id="grain"><feTurbulence baseFrequency=".75" numOctaves="3" stitchTiles="stitch" type="fractalNoise"/><feColorMatrix values="1 0 0 0 0  0 1 0 0 0  0 0 1 0 0  0 0 0 .12 0"/></filter>
    <filter id="figureShadow" x="-100%" y="-50%" width="300%" height="200%"><feDropShadow dx="-18" dy="8" stdDeviation="20" flood-color="#000" flood-opacity=".45"/></filter>
    <clipPath id="poster1"><rect x="62" y="814" width="175" height="224" rx="8"/></clipPath>
    <clipPath id="poster2"><rect x="254" y="814" width="175" height="224" rx="8"/></clipPath>
    <clipPath id="poster3"><rect x="446" y="814" width="175" height="224" rx="8"/></clipPath>
    <clipPath id="poster4"><rect x="638" y="814" width="175" height="224" rx="8"/></clipPath>
    <clipPath id="poster5"><rect x="830" y="814" width="175" height="224" rx="8"/></clipPath>
  </defs>

  <rect width="1440" height="3200" fill="#09090B"/>

  <!-- cinematic hero -->
  <rect width="1440" height="672" fill="url(#sky)"/>
  <rect width="1440" height="672" fill="url(#sunGlow)"/>
  <circle cx="1112" cy="289" r="155" fill="#F26E47" fill-opacity=".73"/>
  <circle cx="1112" cy="289" r="137" stroke="#FFF0D8" stroke-opacity=".18"/>
  <g opacity=".22" stroke="#FFF" stroke-width="1">
    <path d="M660 -30 758 690"/><path d="M706 -30 804 690"/><path d="M752 -30 850 690"/><path d="M798 -30 896 690"/><path d="M844 -30 942 690"/><path d="M890 -30 988 690"/><path d="M936 -30 1034 690"/><path d="M982 -30 1080 690"/><path d="M1028 -30 1126 690"/><path d="M1074 -30 1172 690"/><path d="M1120 -30 1218 690"/><path d="M1166 -30 1264 690"/><path d="M1212 -30 1310 690"/>
  </g>
  <!-- city silhouette -->
  <g fill="#0B0B0E">
    <path d="M650 495H705V472H714V495H770V672H650Z"/>
    <path d="M754 427H822L838 392L852 427H925V672H754Z"/>
    <rect x="906" y="454" width="126" height="218"/>
    <path d="M1014 381H1144V335H1155V381H1214V672H1014Z"/>
    <rect x="1195" y="428" width="118" height="244"/>
    <rect x="1295" y="492" width="155" height="180"/>
  </g>
  <g fill="#E9B46B" fill-opacity=".30">
    <circle cx="686" cy="528" r="2"/><circle cx="719" cy="558" r="2"/><circle cx="793" cy="472" r="2"/><circle cx="835" cy="510" r="2"/><circle cx="870" cy="556" r="2"/><circle cx="949" cy="490" r="2"/><circle cx="987" cy="532" r="2"/><circle cx="1060" cy="425" r="2"/><circle cx="1104" cy="468" r="2"/><circle cx="1161" cy="438" r="2"/><circle cx="1242" cy="478" r="2"/><circle cx="1282" cy="523" r="2"/><circle cx="1340" cy="535" r="2"/>
  </g>
  <!-- lone figure -->
  <g filter="url(#figureShadow)" fill="#08080A">
    <ellipse cx="1016" cy="338" rx="29" ry="33"/>
    <path d="M979 379C979 355 997 344 1018 344C1041 344 1054 359 1056 383L1070 603H972L979 379Z"/>
    <path d="M985 403 932 425 926 444 993 428Z"/>
  </g>
  <rect width="1440" height="672" fill="url(#shade)"/>
  <rect width="1440" height="672" fill="url(#bottomShade)"/>
  <rect width="1440" height="672" filter="url(#grain)" opacity=".32"/>

  <!-- navigation -->
  <line x1="0" y1="84" x2="1440" y2="84" stroke="#FFF" stroke-opacity=".10"/>
  <g transform="translate(62 27)">
    <circle cx="14" cy="14" r="11" stroke="#FF5D38" stroke-width="5" stroke-dasharray="56 15" transform="rotate(12 14 14)"/>
    <circle cx="26" cy="24" r="2.5" fill="#FF5D38"/>
    <text x="43" y="21" fill="#F4F0E8" font-family="DejaVu Sans" font-size="20" font-weight="800" letter-spacing="3.2">CONSUMIT</text>
  </g>
  <g fill="#B8B5B0" font-family="DejaVu Sans" font-size="14" font-weight="600">
    <text x="301" y="52" fill="#F4F0E8">Home</text><text x="382" y="52">Movies</text><text x="475" y="52">Series</text><text x="559" y="52">Friends</text>
  </g>
  <rect x="301" y="81" width="38" height="3" fill="#FF5D38"/>
  <rect x="1112" y="21" width="224" height="42" rx="8" fill="#08080A" fill-opacity=".42" stroke="#FFF" stroke-opacity=".16"/>
  <circle cx="1132" cy="41" r="6" stroke="#AAA7A1" stroke-width="1.5"/><path d="m1136.5 46 5 5" stroke="#AAA7A1" stroke-width="1.5" stroke-linecap="round"/>
  <text x="1153" y="47" fill="#AAA7A1" font-family="DejaVu Sans" font-size="12">Search titles, people, lists</text>
  <circle cx="1380" cy="42" r="20" fill="url(#avatarA)" stroke="#F4F0E8" stroke-width="2"/><circle cx="1394" cy="56" r="5" fill="#B8D86D" stroke="#09090B" stroke-width="2"/>

  <!-- hero copy -->
  <rect x="62" y="184" width="26" height="2" fill="#FF5D38"/>
  <text x="99" y="189" fill="#D4D0C8" font-family="DejaVu Sans" font-size="11" font-weight="700" letter-spacing="2.1">CONSUMIT PREMIERE · FILM</text>
  <text x="58" y="268" fill="#F4F0E8" font-family="Bitstream Charter, DejaVu Serif" font-size="70" letter-spacing="-3">The Last City</text>
  <text x="58" y="330" fill="#F4F0E8" font-family="Bitstream Charter, DejaVu Serif" font-size="70" letter-spacing="-3">After Rain</text>
  <g font-family="DejaVu Sans" font-size="13" fill="#D3D0CA">
    <text x="62" y="365" font-weight="700">2026</text><circle cx="109" cy="361" r="1.5" fill="#77736F"/><text x="120" y="365">2h 08m</text><circle cx="180" cy="361" r="1.5" fill="#77736F"/><text x="191" y="365">Drama · Mystery</text>
    <rect x="306" y="349" width="31" height="21" rx="3" fill="none" stroke="#FFF" stroke-opacity=".35"/><text x="313" y="364" font-size="11">16+</text>
  </g>
  <text x="62" y="403" fill="#BAB6B0" font-family="DejaVu Sans" font-size="15"><tspan x="62">A cartographer returns to a city that has erased every street she</tspan><tspan x="62" dy="25">remembers—and finds one stranger still living inside her old map.</tspan></text>
  <rect x="62" y="467" width="124" height="48" rx="7" fill="#F4F0E8"/>
  <path d="M85 482 97 491 85 500Z" fill="#111114"/><text x="108" y="497" fill="#111114" font-family="DejaVu Sans" font-size="14" font-weight="800">Play now</text>
  <rect x="198" y="467" width="48" height="48" rx="7" fill="#09090B" fill-opacity=".34" stroke="#FFF" stroke-opacity=".25"/>
  <text x="213" y="501" fill="#F4F0E8" font-family="DejaVu Sans" font-size="28" font-weight="300">+</text>
  <!-- taste match -->
  <rect x="62" y="542" width="4" height="38" fill="#FFF" fill-opacity=".12"/><rect x="62" y="553" width="4" height="27" fill="#FF5D38"/>
  <text x="80" y="560" fill="#F4F0E8" font-family="DejaVu Sans" font-size="20" font-weight="800">92%</text>
  <text x="80" y="577" fill="#FF5D38" font-family="DejaVu Sans" font-size="9" font-weight="700" letter-spacing="1.3">TASTE MATCH</text>
  <text x="174" y="557" fill="#AAA7A1" font-family="DejaVu Sans" font-size="12"><tspan>Because you loved </tspan><tspan fill="#E8E4DC" font-weight="700">slow mysteries</tspan><tspan>—and</tspan><tspan x="174" dy="19">Yasmine rated it </tspan><tspan fill="#E8E4DC" font-weight="700">4½.</tspan></text>
  <text x="1267" y="623" fill="#C9C5BD" font-family="DejaVu Sans" font-size="12">01 / 04</text><rect x="1325" y="617" width="53" height="2" fill="#FFF" fill-opacity=".22"/><rect x="1325" y="617" width="22" height="2" fill="#FF5D38"/>

  <!-- lower content -->
  <text x="62" y="742" fill="#F4F0E8" font-family="Bitstream Charter, DejaVu Serif" font-size="31">From your circle</text>
  <text x="344" y="741" fill="#87847F" font-family="DejaVu Sans" font-size="12">What people you trust are loving tonight</text>
  <rect x="1183" y="714" width="39" height="34" rx="6" fill="#151518" stroke="#FFF" stroke-opacity=".15"/><text x="1196" y="736" fill="#E9E5DE" font-family="DejaVu Sans" font-size="11">All</text>
  <text x="1243" y="736" fill="#928F89" font-family="DejaVu Sans" font-size="11">Movies</text><text x="1295" y="736" fill="#928F89" font-family="DejaVu Sans" font-size="11">Series</text><text x="1341" y="736" fill="#928F89" font-family="DejaVu Sans" font-size="11">Lists</text>
  <line x1="62" y1="774" x2="1378" y2="774" stroke="#F4F0E8" stroke-opacity=".13"/>

  <!-- poster cards -->
  <g>
    <rect x="62" y="814" width="175" height="224" rx="8" fill="url(#p1)" stroke="#FFF" stroke-opacity=".1"/>
    <g clip-path="url(#poster1)"><circle cx="150" cy="874" r="20" fill="#E2B07D"/><path d="M50 936 122 910 245 1011V1050H50Z" fill="#0A1116"/><rect x="72" y="827" width="75" height="24" rx="4" fill="#09090B" fill-opacity=".8"/><text x="82" y="843" fill="#E8E4DD" font-family="DejaVu Sans" font-size="9" font-weight="700" letter-spacing=".7">96% MATCH</text></g>
    <circle cx="220" cy="1019" r="12" fill="url(#avatarA)" stroke="#0C0C0E" stroke-width="2"/><circle cx="205" cy="1019" r="12" fill="url(#avatarB)" stroke="#0C0C0E" stroke-width="2"/><circle cx="190" cy="1019" r="12" fill="url(#avatarC)" stroke="#0C0C0E" stroke-width="2"/>
    <text x="62" y="1062" fill="#F4F0E8" font-family="DejaVu Sans" font-size="13" font-weight="700">Northbound</text><text x="62" y="1077" fill="#85827E" font-family="DejaVu Sans" font-size="10">2025 · 1h 49m</text>
  </g>
  <g>
    <rect x="254" y="814" width="175" height="224" rx="8" fill="url(#p2)" stroke="#FFF" stroke-opacity=".1"/>
    <g clip-path="url(#poster2)"><ellipse cx="350" cy="872" rx="18" ry="22" fill="#EFE9DA"/><path d="M252 919 430 852V1040H252Z" fill="#15131B" fill-opacity=".62"/><path d="M275 814 305 1038M312 814 342 1038M349 814 379 1038M386 814 416 1038" stroke="#FFF" stroke-opacity=".08" stroke-width="2"/><rect x="264" y="827" width="85" height="24" rx="4" fill="#09090B" fill-opacity=".8"/><text x="274" y="843" fill="#E8E4DD" font-family="DejaVu Sans" font-size="9" font-weight="700" letter-spacing=".5">NEW EPISODE</text></g>
    <circle cx="412" cy="1019" r="12" fill="url(#avatarA)" stroke="#0C0C0E" stroke-width="2"/><text x="254" y="1062" fill="#F4F0E8" font-family="DejaVu Sans" font-size="13" font-weight="700">Violet Hours</text><text x="254" y="1077" fill="#85827E" font-family="DejaVu Sans" font-size="10">Series · S2 E04</text>
  </g>
  <g>
    <rect x="446" y="814" width="175" height="224" rx="8" fill="url(#p3)" stroke="#FFF" stroke-opacity=".1"/>
    <g clip-path="url(#poster3)"><circle cx="534" cy="925" r="53" fill="none" stroke="#FF5D38" stroke-width="5"/><circle cx="534" cy="925" r="34" fill="#17151A"/><circle cx="534" cy="925" r="21" fill="#D7B6A0"/><rect x="456" y="827" width="83" height="24" rx="4" fill="#09090B" fill-opacity=".8"/><text x="466" y="843" fill="#E8E4DD" font-family="DejaVu Sans" font-size="9" font-weight="700" letter-spacing=".5">NADIA'S PICK</text></g>
    <circle cx="604" cy="1019" r="12" fill="url(#avatarA)" stroke="#0C0C0E" stroke-width="2"/><circle cx="589" cy="1019" r="12" fill="url(#avatarB)" stroke="#0C0C0E" stroke-width="2"/><text x="446" y="1062" fill="#F4F0E8" font-family="DejaVu Sans" font-size="13" font-weight="700">The Quiet Signal</text><text x="446" y="1077" fill="#85827E" font-family="DejaVu Sans" font-size="10">2024 · 2h 11m</text>
  </g>
  <g>
    <rect x="638" y="814" width="175" height="224" rx="8" fill="url(#p4)" stroke="#FFF" stroke-opacity=".1"/>
    <g clip-path="url(#poster4)"><circle cx="726" cy="935" r="30" fill="#EFC195"/><path d="M726 814V1038" stroke="#FFF" stroke-opacity=".25" stroke-width="3"/><rect x="648" y="827" width="96" height="24" rx="4" fill="#09090B" fill-opacity=".8"/><text x="658" y="843" fill="#E8E4DD" font-family="DejaVu Sans" font-size="8.5" font-weight="700" letter-spacing=".4">FRIEND FAVORITE</text></g>
    <circle cx="796" cy="1019" r="12" fill="url(#avatarA)" stroke="#0C0C0E" stroke-width="2"/><circle cx="781" cy="1019" r="12" fill="url(#avatarC)" stroke="#0C0C0E" stroke-width="2"/><text x="638" y="1062" fill="#F4F0E8" font-family="DejaVu Sans" font-size="13" font-weight="700">Saltwater</text><text x="638" y="1077" fill="#85827E" font-family="DejaVu Sans" font-size="10">2026 · 1h 56m</text>
  </g>
  <g>
    <rect x="830" y="814" width="175" height="224" rx="8" fill="url(#p5)" stroke="#FFF" stroke-opacity=".1"/>
    <g clip-path="url(#poster5)"><circle cx="908" cy="910" r="23" fill="#F0D6BE"/><path d="M830 988 1008 914V1041H830Z" fill="#17141A" fill-opacity=".68"/><path d="M845 838 987 1011M846 888 971 1038M880 814 1005 964" stroke="#FFF2D9" stroke-opacity=".09" stroke-width="3"/><rect x="840" y="827" width="75" height="24" rx="4" fill="#09090B" fill-opacity=".8"/><text x="850" y="843" fill="#E8E4DD" font-family="DejaVu Sans" font-size="9" font-weight="700" letter-spacing=".5">HIDDEN GEM</text></g>
    <circle cx="988" cy="1019" r="12" fill="url(#avatarB)" stroke="#0C0C0E" stroke-width="2"/><text x="830" y="1062" fill="#F4F0E8" font-family="DejaVu Sans" font-size="13" font-weight="700">Before the Dust</text><text x="830" y="1077" fill="#85827E" font-family="DejaVu Sans" font-size="10">2023 · 1h 38m</text>
  </g>

  <!-- social activity rail -->
  <line x1="1035" y1="805" x2="1035" y2="1080" stroke="#F4F0E8" stroke-opacity=".13"/>
  <text x="1063" y="824" fill="#F4F0E8" font-family="DejaVu Sans" font-size="13" font-weight="700">Friends are watching</text><text x="1330" y="824" fill="#FF5D38" font-family="DejaVu Sans" font-size="9" font-weight="700">SEE ALL</text>
  <line x1="1063" y1="847" x2="1378" y2="847" stroke="#FFF" stroke-opacity=".08"/>
  <circle cx="1080" cy="874" r="17" fill="url(#avatarA)"/><text x="1108" y="870" fill="#E5E1DA" font-family="DejaVu Sans" font-size="11" font-weight="700">Yasmine</text><text x="1170" y="870" fill="#9E9A95" font-family="DejaVu Sans" font-size="11">watched</text><text x="1108" y="888" fill="#C8C4BD" font-family="DejaVu Sans" font-size="11">The Quiet Signal</text><text x="1108" y="906" fill="#FF5D38" font-family="DejaVu Sans" font-size="10" letter-spacing="2">★★★★½</text>
  <line x1="1063" y1="925" x2="1378" y2="925" stroke="#FFF" stroke-opacity=".08"/>
  <circle cx="1080" cy="952" r="17" fill="url(#avatarB)"/><text x="1108" y="948" fill="#E5E1DA" font-family="DejaVu Sans" font-size="11" font-weight="700">Omar</text><text x="1150" y="948" fill="#9E9A95" font-family="DejaVu Sans" font-size="11">added Violet Hours to</text><text x="1108" y="966" fill="#C8C4BD" font-family="DejaVu Sans" font-size="11">“Weekend with the boys”</text><text x="1108" y="984" fill="#FF5D38" font-family="DejaVu Sans" font-size="10">● 12 TITLES</text>
  <line x1="1063" y1="1003" x2="1378" y2="1003" stroke="#FFF" stroke-opacity=".08"/>
  <circle cx="1080" cy="1030" r="17" fill="url(#avatarC)"/><text x="1108" y="1027" fill="#E5E1DA" font-family="DejaVu Sans" font-size="11" font-weight="700">Nadia</text><text x="1150" y="1027" fill="#9E9A95" font-family="DejaVu Sans" font-size="11">reviewed Northbound</text><text x="1108" y="1047" fill="#FF5D38" font-family="DejaVu Sans" font-size="10" letter-spacing="2">★★★★★</text>

  <!-- Continue watching -->
  <line x1="62" y1="1135" x2="1378" y2="1135" stroke="#F4F0E8" stroke-opacity=".08"/>
  <text x="62" y="1208" fill="#F4F0E8" font-family="Bitstream Charter, DejaVu Serif" font-size="31">Continue watching</text>
  <text x="1322" y="1205" fill="#FF5D38" font-family="DejaVu Sans" font-size="10" font-weight="700">VIEW ALL</text>
  <g>
    <rect x="62" y="1245" width="303" height="170" rx="8" fill="url(#wide1)" stroke="#FFF" stroke-opacity=".1"/>
    <circle cx="218" cy="1310" r="25" fill="#E8B17A"/><path d="M62 1360 170 1325 365 1415H62Z" fill="#081015" fill-opacity=".9"/>
    <circle cx="214" cy="1330" r="23" fill="#09090B" fill-opacity=".76" stroke="#FFF" stroke-opacity=".3"/><path d="M210 1321 222 1330 210 1339Z" fill="#FFF"/>
    <rect x="62" y="1409" width="303" height="6" fill="#FFF" fill-opacity=".14"/><rect x="62" y="1409" width="188" height="6" fill="#FF5D38"/>
    <text x="62" y="1442" fill="#F4F0E8" font-family="DejaVu Sans" font-size="14" font-weight="700">Harbor of Glass</text><text x="62" y="1461" fill="#85827E" font-family="DejaVu Sans" font-size="10">41 min left</text>
  </g>
  <g>
    <rect x="383" y="1245" width="303" height="170" rx="8" fill="url(#wide2)" stroke="#FFF" stroke-opacity=".1"/>
    <path d="M383 1390 455 1325 520 1370 609 1276 686 1350V1415H383Z" fill="#10161A" fill-opacity=".86"/><circle cx="541" cy="1331" r="22" fill="#09090B" fill-opacity=".74" stroke="#FFF" stroke-opacity=".3"/><path d="M537 1322 549 1331 537 1340Z" fill="#FFF"/>
    <rect x="383" y="1409" width="303" height="6" fill="#FFF" fill-opacity=".14"/><rect x="383" y="1409" width="101" height="6" fill="#FF5D38"/>
    <text x="383" y="1442" fill="#F4F0E8" font-family="DejaVu Sans" font-size="14" font-weight="700">Fault Lines</text><text x="383" y="1461" fill="#85827E" font-family="DejaVu Sans" font-size="10">S1 E06 · 29 min left</text>
  </g>
  <g>
    <rect x="704" y="1245" width="303" height="170" rx="8" fill="url(#wide3)" stroke="#FFF" stroke-opacity=".1"/>
    <circle cx="852" cy="1316" r="41" fill="none" stroke="#F1CAB0" stroke-opacity=".7" stroke-width="2"/><circle cx="852" cy="1316" r="17" fill="#EBC5A8"/><path d="M704 1372 1007 1295V1415H704Z" fill="#17141A" fill-opacity=".63"/><circle cx="852" cy="1330" r="23" fill="#09090B" fill-opacity=".74" stroke="#FFF" stroke-opacity=".3"/><path d="M848 1321 860 1330 848 1339Z" fill="#FFF"/>
    <rect x="704" y="1409" width="303" height="6" fill="#FFF" fill-opacity=".14"/><rect x="704" y="1409" width="237" height="6" fill="#FF5D38"/>
    <text x="704" y="1442" fill="#F4F0E8" font-family="DejaVu Sans" font-size="14" font-weight="700">No One Leaves Sunday</text><text x="704" y="1461" fill="#85827E" font-family="DejaVu Sans" font-size="10">18 min left</text>
  </g>
  <g>
    <rect x="1025" y="1245" width="353" height="170" rx="8" fill="url(#wide4)" stroke="#FFF" stroke-opacity=".1"/>
    <path d="M1025 1355 1110 1290 1188 1342 1257 1270 1378 1370V1415H1025Z" fill="#0A0E13" fill-opacity=".85"/><circle cx="1201" cy="1330" r="23" fill="#09090B" fill-opacity=".74" stroke="#FFF" stroke-opacity=".3"/><path d="M1197 1321 1209 1330 1197 1339Z" fill="#FFF"/>
    <rect x="1025" y="1409" width="353" height="6" fill="#FFF" fill-opacity=".14"/><rect x="1025" y="1409" width="64" height="6" fill="#FF5D38"/>
    <text x="1025" y="1442" fill="#F4F0E8" font-family="DejaVu Sans" font-size="14" font-weight="700">The Hour Before Morning</text><text x="1025" y="1461" fill="#85827E" font-family="DejaVu Sans" font-size="10">S3 E02 · 47 min left</text>
  </g>

  <!-- editorial recommendation -->
  <text x="62" y="1559" fill="#FF5D38" font-family="DejaVu Sans" font-size="10" font-weight="700" letter-spacing="1.6">BECAUSE YOU LOVED ARRIVAL</text>
  <rect x="62" y="1585" width="1316" height="405" rx="10" fill="url(#feature)" stroke="#FFF" stroke-opacity=".1"/>
  <g opacity=".42" stroke="#A79CFF">
    <circle cx="428" cy="1790" r="46"/><circle cx="428" cy="1790" r="93"/><circle cx="428" cy="1790" r="144"/><circle cx="428" cy="1790" r="201"/>
  </g>
  <path d="M280 1990 356 1818 425 1860 510 1735 618 1990Z" fill="#0B0B10" fill-opacity=".88"/>
  <ellipse cx="426" cy="1773" rx="27" ry="31" fill="#09090B"/><path d="M387 1815C391 1786 409 1774 430 1774 456 1774 470 1790 471 1820L486 1948H376L387 1815Z" fill="#09090B"/>
  <rect x="500" y="1585" width="878" height="405" fill="url(#featureShade)"/>
  <text x="825" y="1662" fill="#CCC7BE" font-family="DejaVu Sans" font-size="11" font-weight="700" letter-spacing="1.2">A CONSUMIT EDITORIAL PICK</text>
  <text x="821" y="1733" fill="#F4F0E8" font-family="Bitstream Charter, DejaVu Serif" font-size="49" letter-spacing="-1.5">A Place Between Signals</text>
  <text x="825" y="1771" fill="#B7B2AA" font-family="DejaVu Sans" font-size="13">2025 · 1h 57m · Science fiction · Drama</text>
  <text x="825" y="1810" fill="#B7B2AA" font-family="DejaVu Sans" font-size="14"><tspan x="825">A linguist receives one message from a future that never happened.</tspan><tspan x="825" dy="24">To answer it, she has to remember a life she never lived.</tspan></text>
  <rect x="825" y="1870" width="121" height="46" rx="7" fill="#F4F0E8"/><path d="M847 1884 858 1893 847 1902Z" fill="#111114"/><text x="869" y="1899" fill="#111114" font-family="DejaVu Sans" font-size="13" font-weight="800">Play now</text>
  <rect x="958" y="1870" width="138" height="46" rx="7" fill="none" stroke="#FFF" stroke-opacity=".22"/><text x="979" y="1899" fill="#E9E5DE" font-family="DejaVu Sans" font-size="12" font-weight="700">Why this pick?</text>
  <circle cx="1152" cy="1893" r="14" fill="url(#avatarC)" stroke="#121216" stroke-width="2"/><circle cx="1171" cy="1893" r="14" fill="url(#avatarB)" stroke="#121216" stroke-width="2"/>
  <text x="1193" y="1889" fill="#DDD8CF" font-family="DejaVu Sans" font-size="10" font-weight="700">2 friends loved it</text><text x="1193" y="1906" fill="#918D87" font-family="DejaVu Sans" font-size="10">Average 4.6</text>

  <!-- trending -->
  <text x="62" y="2094" fill="#F4F0E8" font-family="Bitstream Charter, DejaVu Serif" font-size="31">Trending tonight</text>
  <text x="332" y="2093" fill="#87847F" font-family="DejaVu Sans" font-size="12">What Consumit members are actually finishing</text>
  <text x="1322" y="2092" fill="#FF5D38" font-family="DejaVu Sans" font-size="10" font-weight="700">VIEW ALL</text>
  <g>
    <text x="55" y="2330" fill="#F4F0E8" fill-opacity=".12" font-family="Bitstream Charter, DejaVu Serif" font-size="168">1</text><rect x="118" y="2140" width="205" height="286" rx="8" fill="url(#p4)" stroke="#FFF" stroke-opacity=".1"/><circle cx="221" cy="2250" r="34" fill="#EEC092"/><path d="M118 2350 323 2250V2426H118Z" fill="#10151A" fill-opacity=".65"/><rect x="130" y="2153" width="72" height="23" rx="4" fill="#09090B" fill-opacity=".8"/><text x="140" y="2168" fill="#E8E4DD" font-family="DejaVu Sans" font-size="8.5" font-weight="700">8.7 MEMBER</text><text x="118" y="2455" fill="#F4F0E8" font-family="DejaVu Sans" font-size="13" font-weight="700">Sea of Names</text><text x="118" y="2474" fill="#85827E" font-family="DejaVu Sans" font-size="10">18K watched · 94% finished</text>
  </g>
  <g>
    <text x="326" y="2330" fill="#F4F0E8" fill-opacity=".12" font-family="Bitstream Charter, DejaVu Serif" font-size="168">2</text><rect x="389" y="2140" width="205" height="286" rx="8" fill="url(#p1)" stroke="#FFF" stroke-opacity=".1"/><circle cx="490" cy="2220" r="22" fill="#E4B27D"/><path d="M389 2336 468 2284 594 2388V2426H389Z" fill="#0B1217"/><rect x="401" y="2153" width="72" height="23" rx="4" fill="#09090B" fill-opacity=".8"/><text x="411" y="2168" fill="#E8E4DD" font-family="DejaVu Sans" font-size="8.5" font-weight="700">8.4 MEMBER</text><text x="389" y="2455" fill="#F4F0E8" font-family="DejaVu Sans" font-size="13" font-weight="700">Atlas Motel</text><text x="389" y="2474" fill="#85827E" font-family="DejaVu Sans" font-size="10">15K watched · 91% finished</text>
  </g>
  <g>
    <text x="597" y="2330" fill="#F4F0E8" fill-opacity=".12" font-family="Bitstream Charter, DejaVu Serif" font-size="168">3</text><rect x="660" y="2140" width="205" height="286" rx="8" fill="url(#p2)" stroke="#FFF" stroke-opacity=".1"/><circle cx="763" cy="2230" r="25" fill="#EFE8DA"/><path d="M660 2380 865 2258V2426H660Z" fill="#17141B" fill-opacity=".7"/><path d="M681 2140 724 2426M735 2140 778 2426M789 2140 832 2426" stroke="#FFF" stroke-opacity=".07" stroke-width="3"/><rect x="672" y="2153" width="72" height="23" rx="4" fill="#09090B" fill-opacity=".8"/><text x="682" y="2168" fill="#E8E4DD" font-family="DejaVu Sans" font-size="8.5" font-weight="700">8.3 MEMBER</text><text x="660" y="2455" fill="#F4F0E8" font-family="DejaVu Sans" font-size="13" font-weight="700">Little Gods</text><text x="660" y="2474" fill="#85827E" font-family="DejaVu Sans" font-size="10">13K watched · 89% finished</text>
  </g>
  <g>
    <text x="868" y="2330" fill="#F4F0E8" fill-opacity=".12" font-family="Bitstream Charter, DejaVu Serif" font-size="168">4</text><rect x="931" y="2140" width="205" height="286" rx="8" fill="url(#p5)" stroke="#FFF" stroke-opacity=".1"/><circle cx="1032" cy="2251" r="26" fill="#F1D7BE"/><path d="M931 2370 1136 2290V2426H931Z" fill="#17131A" fill-opacity=".72"/><rect x="943" y="2153" width="72" height="23" rx="4" fill="#09090B" fill-opacity=".8"/><text x="953" y="2168" fill="#E8E4DD" font-family="DejaVu Sans" font-size="8.5" font-weight="700">8.1 MEMBER</text><text x="931" y="2455" fill="#F4F0E8" font-family="DejaVu Sans" font-size="13" font-weight="700">The Returning</text><text x="931" y="2474" fill="#85827E" font-family="DejaVu Sans" font-size="10">11K watched · 88% finished</text>
  </g>
  <g>
    <text x="1139" y="2330" fill="#F4F0E8" fill-opacity=".12" font-family="Bitstream Charter, DejaVu Serif" font-size="168">5</text><rect x="1202" y="2140" width="176" height="286" rx="8" fill="url(#p3)" stroke="#FFF" stroke-opacity=".1"/><circle cx="1290" cy="2278" r="48" fill="none" stroke="#FF5D38" stroke-width="5"/><circle cx="1290" cy="2278" r="19" fill="#D7B6A0"/><rect x="1214" y="2153" width="72" height="23" rx="4" fill="#09090B" fill-opacity=".8"/><text x="1224" y="2168" fill="#E8E4DD" font-family="DejaVu Sans" font-size="8.5" font-weight="700">7.9 MEMBER</text><text x="1202" y="2455" fill="#F4F0E8" font-family="DejaVu Sans" font-size="13" font-weight="700">Third Sun</text><text x="1202" y="2474" fill="#85827E" font-family="DejaVu Sans" font-size="10">10K watched · 86% finished</text>
  </g>

  <!-- curated lists -->
  <line x1="62" y1="2540" x2="1378" y2="2540" stroke="#F4F0E8" stroke-opacity=".08"/>
  <text x="62" y="2615" fill="#F4F0E8" font-family="Bitstream Charter, DejaVu Serif" font-size="31">Lists worth stealing</text>
  <text x="386" y="2614" fill="#87847F" font-family="DejaVu Sans" font-size="12">Made by people you follow, not a content department</text>
  <g>
    <rect x="62" y="2652" width="416" height="230" rx="8" fill="url(#listA)" stroke="#FFF" stroke-opacity=".1"/>
    <rect x="80" y="2672" width="104" height="156" rx="5" fill="#24151C" transform="rotate(-4 80 2672)"/><circle cx="132" cy="2738" r="27" fill="#E4A47A"/><rect x="169" y="2682" width="104" height="156" rx="5" fill="#1A1A20" transform="rotate(3 169 2682)"/><circle cx="221" cy="2742" r="33" fill="none" stroke="#FF5D38" stroke-width="4"/>
    <rect x="277" y="2652" width="201" height="230" fill="#0B0B0E" fill-opacity=".70"/><text x="299" y="2701" fill="#FF5D38" font-family="DejaVu Sans" font-size="9" font-weight="700" letter-spacing="1">YASMINE'S LIST</text><text x="299" y="2743" fill="#F4F0E8" font-family="Bitstream Charter, DejaVu Serif" font-size="23"><tspan x="299">Films that feel</tspan><tspan x="299" dy="28">like a memory</tspan></text><text x="299" y="2820" fill="#AAA7A1" font-family="DejaVu Sans" font-size="10">18 titles · 426 saves</text>
  </g>
  <g>
    <rect x="496" y="2652" width="416" height="230" rx="8" fill="url(#listB)" stroke="#FFF" stroke-opacity=".1"/>
    <path d="M496 2795 590 2697 663 2771 735 2676 786 2730V2882H496Z" fill="#11171B" fill-opacity=".75"/><circle cx="629" cy="2723" r="25" fill="#EDBD91"/>
    <rect x="711" y="2652" width="201" height="230" fill="#0B0B0E" fill-opacity=".70"/><text x="733" y="2701" fill="#FF5D38" font-family="DejaVu Sans" font-size="9" font-weight="700" letter-spacing="1">OMAR'S LIST</text><text x="733" y="2743" fill="#F4F0E8" font-family="Bitstream Charter, DejaVu Serif" font-size="23"><tspan x="733">One perfect film</tspan><tspan x="733" dy="28">for every mood</tspan></text><text x="733" y="2820" fill="#AAA7A1" font-family="DejaVu Sans" font-size="10">12 titles · 319 saves</text>
  </g>
  <g>
    <rect x="930" y="2652" width="448" height="230" rx="8" fill="url(#listC)" stroke="#FFF" stroke-opacity=".1"/>
    <circle cx="1046" cy="2759" r="72" fill="none" stroke="#A79CFF" stroke-opacity=".55"/><circle cx="1046" cy="2759" r="36" fill="#E0B99D"/><path d="M930 2840 1135 2740V2882H930Z" fill="#141218" fill-opacity=".67"/>
    <rect x="1145" y="2652" width="233" height="230" fill="#0B0B0E" fill-opacity=".70"/><text x="1167" y="2701" fill="#FF5D38" font-family="DejaVu Sans" font-size="9" font-weight="700" letter-spacing="1">NADIA'S LIST</text><text x="1167" y="2743" fill="#F4F0E8" font-family="Bitstream Charter, DejaVu Serif" font-size="23"><tspan x="1167">Beautifully strange</tspan><tspan x="1167" dy="28">and worth it</tspan></text><text x="1167" y="2820" fill="#AAA7A1" font-family="DejaVu Sans" font-size="10">24 titles · 588 saves</text>
  </g>

  <!-- moods -->
  <text x="62" y="2985" fill="#F4F0E8" font-family="Bitstream Charter, DejaVu Serif" font-size="31">What kind of night is it?</text>
  <g font-family="DejaVu Sans" font-size="12" font-weight="700">
    <rect x="62" y="3020" width="187" height="58" rx="7" fill="#141418" stroke="#FFF" stroke-opacity=".12"/><circle cx="88" cy="3049" r="5" fill="#FF5D38"/><text x="106" y="3054" fill="#E9E5DE">Slow &amp; beautiful</text>
    <rect x="264" y="3020" width="187" height="58" rx="7" fill="#141418" stroke="#FFF" stroke-opacity=".12"/><circle cx="290" cy="3049" r="5" fill="#A79CFF"/><text x="308" y="3054" fill="#E9E5DE">Mess with my head</text>
    <rect x="466" y="3020" width="187" height="58" rx="7" fill="#141418" stroke="#FFF" stroke-opacity=".12"/><circle cx="492" cy="3049" r="5" fill="#B8D86D"/><text x="510" y="3054" fill="#E9E5DE">Easy comfort</text>
    <rect x="668" y="3020" width="187" height="58" rx="7" fill="#141418" stroke="#FFF" stroke-opacity=".12"/><circle cx="694" cy="3049" r="5" fill="#E9C46A"/><text x="712" y="3054" fill="#E9E5DE">Laugh with friends</text>
    <rect x="870" y="3020" width="187" height="58" rx="7" fill="#141418" stroke="#FFF" stroke-opacity=".12"/><circle cx="896" cy="3049" r="5" fill="#D87070"/><text x="914" y="3054" fill="#E9E5DE">Pure tension</text>
    <rect x="1072" y="3020" width="306" height="58" rx="7" fill="#F4F0E8"/><text x="1100" y="3054" fill="#111114">Surprise me based on my taste</text><path d="M1341 3043 1352 3049 1341 3055" stroke="#111114" stroke-width="1.5" stroke-linecap="round" stroke-linejoin="round"/>
  </g>

  <!-- footer -->
  <rect x="0" y="3137" width="1440" height="63" fill="#0C0C0F"/><line x1="0" y1="3137" x2="1440" y2="3137" stroke="#F4F0E8" stroke-opacity=".09"/>
  <g transform="translate(62 3153)"><circle cx="14" cy="14" r="11" stroke="#FF5D38" stroke-width="5" stroke-dasharray="56 15" transform="rotate(12 14 14)"/><circle cx="26" cy="24" r="2.5" fill="#FF5D38"/><text x="43" y="21" fill="#F4F0E8" font-family="DejaVu Sans" font-size="16" font-weight="800" letter-spacing="2.4">CONSUMIT</text></g>
  <text x="335" y="3179" fill="#85827E" font-family="DejaVu Sans" font-size="10">About</text><text x="386" y="3179" fill="#85827E" font-family="DejaVu Sans" font-size="10">Help</text><text x="429" y="3179" fill="#85827E" font-family="DejaVu Sans" font-size="10">Apps</text><text x="474" y="3179" fill="#85827E" font-family="DejaVu Sans" font-size="10">Terms</text><text x="525" y="3179" fill="#85827E" font-family="DejaVu Sans" font-size="10">Privacy</text><text x="1215" y="3179" fill="#85827E" font-family="DejaVu Sans" font-size="10">© 2026 Consumit</text>
</svg>
