<svg width="1440" height="1000" viewBox="0 0 1440 1000" fill="none" xmlns="http://www.w3.org/2000/svg">
  <defs><linearGradient id="panel" x1="0" y1="0" x2="1" y2="1"><stop stop-color="#17131A"/><stop offset=".55" stop-color="#37222E"/><stop offset="1" stop-color="#15151B"/></linearGradient><linearGradient id="p1" x1="0" y1="0" x2="1" y2="1"><stop stop-color="#D09A70"/><stop offset=".5" stop-color="#9A463E"/><stop offset=".51" stop-color="#18313A"/><stop offset="1" stop-color="#091015"/></linearGradient><linearGradient id="p2" x1="0" y1="0" x2="1" y2="1"><stop stop-color="#2A2033"/><stop offset=".55" stop-color="#715D83"/><stop offset="1" stop-color="#17151D"/></linearGradient><linearGradient id="p3" x1="0" y1="0" x2="1" y2="1"><stop stop-color="#203239"/><stop offset=".57" stop-color="#4F7477"/><stop offset="1" stop-color="#14161B"/></linearGradient><filter id="grain"><feTurbulence baseFrequency=".72" numOctaves="3" type="fractalNoise"/><feColorMatrix values="1 0 0 0 0 0 1 0 0 0 0 0 1 0 0 0 0 0 .08 0"/></filter></defs>
  <rect width="1440" height="1000" fill="#09090B"/>
  <rect width="1440" height="84" fill="#0B0B0E"/><line x1="0" y1="84" x2="1440" y2="84" stroke="#FFF" stroke-opacity=".1"/><g transform="translate(62 27)"><circle cx="14" cy="14" r="11" stroke="#FF5D38" stroke-width="5" stroke-dasharray="56 15" transform="rotate(12 14 14)"/><circle cx="26" cy="24" r="2.5" fill="#FF5D38"/><text x="43" y="21" fill="#F4F0E8" font-family="DejaVu Sans" font-size="20" font-weight="800" letter-spacing="3.2">CONSUMIT</text></g><text x="1106" y="40" fill="#85827E" font-family="DejaVu Sans" font-size="9">ONBOARDING · 1 OF 3</text><rect x="1106" y="54" width="190" height="4" fill="#29292E"/><rect x="1106" y="54" width="63" height="4" fill="#FF5D38"/><text x="1378" y="43" text-anchor="end" fill="#85827E" font-family="DejaVu Sans" font-size="9">Skip for now</text>
  <rect x="62" y="129" width="1316" height="782" rx="10" fill="url(#panel)" stroke="#FFF" stroke-opacity=".1"/><rect x="62" y="129" width="1316" height="782" filter="url(#grain)" opacity=".25"/>
  <rect x="112" y="193" width="26" height="2" fill="#FF5D38"/><text x="149" y="198" fill="#CFCAC2" font-family="DejaVu Sans" font-size="9" font-weight="700" letter-spacing="1.8">STEP 01 · BRING YOUR HISTORY</text>
  <text x="108" y="299" fill="#F4F0E8" font-family="Bitstream Charter, DejaVu Serif" font-size="52" letter-spacing="-1.2"><tspan x="108">Your history can</tspan><tspan x="108" dy="54">come with you.</tspan></text><text x="112" y="408" fill="#AAA7A1" font-family="DejaVu Sans" font-size="12"><tspan x="112">Import what you watched, rated, liked, and saved.</tspan><tspan x="112" dy="20">Or start clean. Neither choice locks you in.</tspan></text>
  <g transform="translate(118 500)"><g transform="rotate(-8 90 132)"><rect width="180" height="264" rx="8" fill="url(#p1)"/><circle cx="90" cy="82" r="23" fill="#EAC39B"/><path d="M0 218 90 95 180 207V264H0Z" fill="#0A1217" fill-opacity=".85"/></g><g transform="translate(126 14) rotate(5 90 132)"><rect width="180" height="264" rx="8" fill="url(#p2)"/><circle cx="90" cy="104" r="37" fill="none" stroke="#D8C8E7" stroke-opacity=".5"/><path d="M0 225 180 112V264H0Z" fill="#16131B" fill-opacity=".72"/></g><g transform="translate(255 33) rotate(10 78 120)"><rect width="156" height="240" rx="8" fill="url(#p3)"/><circle cx="78" cy="79" r="22" fill="#E4C7A3"/><path d="M0 195 156 97V240H0Z" fill="#10191D" fill-opacity=".8"/></g></g>
  <rect x="632" y="185" width="690" height="250" rx="8" fill="#101014" stroke="#FF5D38" stroke-opacity=".5"/><rect x="632" y="185" width="4" height="250" rx="2" fill="#FF5D38"/><rect x="664" y="217" width="54" height="54" rx="8" fill="#FF5D38"/><path d="M680 246h22m-11-11v22" stroke="#111114" stroke-width="2"/><text x="742" y="237" fill="#F4F0E8" font-family="DejaVu Sans" font-size="13" font-weight="800">Import from Letterboxd</text><text x="742" y="260" fill="#85827E" font-family="DejaVu Sans" font-size="9">Upload your Letterboxd export. Takes about 30 seconds.</text>
  <g fill="#B8B3AC" font-family="DejaVu Sans" font-size="9"><circle cx="674" cy="312" r="4" fill="#B8D86D"/><text x="690" y="316">Watched films and diary dates</text><circle cx="674" cy="344" r="4" fill="#B8D86D"/><text x="690" y="348">Ratings, likes, and favorites</text><circle cx="674" cy="376" r="4" fill="#B8D86D"/><text x="690" y="380">Watchlist and personal lists</text></g><rect x="1113" y="341" width="177" height="54" rx="7" fill="#F4F0E8"/><text x="1201" y="374" text-anchor="middle" fill="#111114" font-family="DejaVu Sans" font-size="9" font-weight="900">CHOOSE EXPORT FILE</text>
  <rect x="632" y="455" width="690" height="168" rx="8" fill="#111115" stroke="#FFF" stroke-opacity=".12"/><rect x="664" y="487" width="54" height="54" rx="8" fill="#19191E" stroke="#FFF" stroke-opacity=".13"/><path d="M679 516h24" stroke="#A79CFF" stroke-width="2"/><text x="742" y="507" fill="#F4F0E8" font-family="DejaVu Sans" font-size="13" font-weight="800">Start fresh</text><text x="742" y="531" fill="#85827E" font-family="DejaVu Sans" font-size="9">Pick a few favorites in the next step. You can import later from Settings.</text><rect x="1147" y="498" width="143" height="46" rx="7" fill="#19191E" stroke="#FFF" stroke-opacity=".14"/><text x="1218" y="526" text-anchor="middle" fill="#D8D4CD" font-family="DejaVu Sans" font-size="9" font-weight="800">START CLEAN</text>
  <rect x="632" y="645" width="690" height="116" rx="8" fill="#0E0E12" stroke="#FFF" stroke-opacity=".08"/><circle cx="672" cy="687" r="8" fill="none" stroke="#A79CFF"/><path d="M668 687h8m-4-4v8" stroke="#A79CFF"/><text x="696" y="676" fill="#D5D0C8" font-family="DejaVu Sans" font-size="9" font-weight="700">Your import is yours.</text><text x="696" y="697" fill="#77736E" font-family="DejaVu Sans" font-size="8"><tspan x="696">We use it to build your library and taste profile. Delete imported data anytime</tspan><tspan x="696" dy="16">without deleting your account.</tspan></text><text x="1289" y="734" text-anchor="end" fill="#85827E" font-family="DejaVu Sans" font-size="8">What gets imported?</text>
  <text x="112" y="863" fill="#66635F" font-family="DejaVu Sans" font-size="8">You can skip every onboarding step and change these choices later.</text><rect x="1127" y="824" width="195" height="52" rx="7" fill="#FF5D38"/><text x="1224" y="856" text-anchor="middle" fill="#111114" font-family="DejaVu Sans" font-size="10" font-weight="900">CONTINUE</text>
</svg>
