<svg width="1440" height="3000" viewBox="0 0 1440 3000" fill="none" xmlns="http://www.w3.org/2000/svg">
  <defs>
    <linearGradient id="banner" x1="0" y1="84" x2="1440" y2="520" gradientUnits="userSpaceOnUse"><stop stop-color="#0A0A0D"/><stop offset=".38" stop-color="#17131A"/><stop offset=".7" stop-color="#3C2632"/><stop offset="1" stop-color="#743629"/></linearGradient>
    <radialGradient id="sun" cx="0" cy="0" r="1" gradientTransform="translate(1160 210) rotate(90) scale(190)" gradientUnits="userSpaceOnUse"><stop stop-color="#FF9B65" stop-opacity=".45"/><stop offset="1" stop-color="#FF5D38" stop-opacity="0"/></radialGradient>
    <linearGradient id="p1" x1="0" y1="0" x2="1" y2="1"><stop stop-color="#D09769"/><stop offset=".49" stop-color="#90423C"/><stop offset=".5" stop-color="#173038"/><stop offset="1" stop-color="#091015"/></linearGradient>
    <linearGradient id="p2" x1="0" y1="0" x2="1" y2="1"><stop stop-color="#2A2033"/><stop offset=".55" stop-color="#715D83"/><stop offset="1" stop-color="#17151D"/></linearGradient>
    <linearGradient id="p3" x1="0" y1="0" x2="0" y2="1"><stop stop-color="#E8C7A9"/><stop offset="1" stop-color="#6C282B"/></linearGradient>
    <linearGradient id="p4" x1="0" y1="0" x2="1" y2="1"><stop stop-color="#203239"/><stop offset=".57" stop-color="#4F7477"/><stop offset="1" stop-color="#14161B"/></linearGradient>
    <linearGradient id="p5" x1="0" y1="0" x2="1" y2="1"><stop stop-color="#773745"/><stop offset=".6" stop-color="#291A2B"/><stop offset="1" stop-color="#111116"/></linearGradient>
    <linearGradient id="p6" x1="0" y1="0" x2="1" y2="1"><stop stop-color="#D5B08B"/><stop offset=".55" stop-color="#884044"/><stop offset="1" stop-color="#241822"/></linearGradient>
    <linearGradient id="avatarA" x1="0" y1="0" x2="1" y2="1"><stop stop-color="#E6A176"/><stop offset=".43" stop-color="#E6A176"/><stop offset=".44" stop-color="#35293E"/></linearGradient>
    <linearGradient id="avatarB" x1="0" y1="0" x2="1" y2="1"><stop stop-color="#C88768"/><stop offset=".42" stop-color="#C88768"/><stop offset=".43" stop-color="#21424D"/></linearGradient>
    <linearGradient id="avatarC" x1="0" y1="0" x2="1" y2="1"><stop stop-color="#D9B386"/><stop offset=".42" stop-color="#D9B386"/><stop offset=".43" stop-color="#5A2932"/></linearGradient>
    <linearGradient id="avatarD" x1="0" y1="0" x2="1" y2="1"><stop stop-color="#B97D69"/><stop offset=".42" stop-color="#B97D69"/><stop offset=".43" stop-color="#3F375C"/></linearGradient>
    <filter id="grain"><feTurbulence baseFrequency=".72" numOctaves="3" type="fractalNoise"/><feColorMatrix values="1 0 0 0 0 0 1 0 0 0 0 0 1 0 0 0 0 0 .09 0"/></filter>
  </defs>

  <rect width="1440" height="3000" fill="#09090B"/>
  <!-- shared nav -->
  <rect width="1440" height="84" fill="#0B0B0E"/><line x1="0" y1="84" x2="1440" y2="84" stroke="#FFF" stroke-opacity=".1"/>
  <g transform="translate(62 27)"><circle cx="14" cy="14" r="11" stroke="#FF5D38" stroke-width="5" stroke-dasharray="56 15" transform="rotate(12 14 14)"/><circle cx="26" cy="24" r="2.5" fill="#FF5D38"/><text x="43" y="21" fill="#F4F0E8" font-family="DejaVu Sans" font-size="20" font-weight="800" letter-spacing="3.2">CONSUMIT</text></g>
  <g fill="#B8B5B0" font-family="DejaVu Sans" font-size="14" font-weight="600"><text x="301" y="52">Home</text><text x="382" y="52">Movies</text><text x="475" y="52">Series</text><text x="559" y="52">Friends</text></g><rect x="1112" y="21" width="224" height="42" rx="8" fill="#08080A" stroke="#FFF" stroke-opacity=".16"/><circle cx="1132" cy="41" r="6" stroke="#AAA7A1" stroke-width="1.5"/><path d="m1136.5 46 5 5" stroke="#AAA7A1" stroke-width="1.5"/><text x="1153" y="47" fill="#AAA7A1" font-family="DejaVu Sans" font-size="12">Search titles, people, lists</text><circle cx="1380" cy="42" r="20" fill="url(#avatarA)" stroke="#FF5D38" stroke-width="2"/><circle cx="1394" cy="56" r="5" fill="#B8D86D" stroke="#09090B" stroke-width="2"/>

  <!-- owner profile masthead -->
  <rect y="84" width="1440" height="440" fill="url(#banner)"/><rect y="84" width="1440" height="440" fill="url(#sun)"/><circle cx="1160" cy="210" r="113" fill="#D8754C" fill-opacity=".26"/><circle cx="1160" cy="210" r="86" fill="none" stroke="#FFF" stroke-opacity=".12"/>
  <path d="M610 84 858 84 812 524 548 524Z" fill="#12303A" fill-opacity=".35"/><path d="M786 84 1030 84 980 524 720 524Z" fill="#422447" fill-opacity=".36"/><path d="M1002 524 1160 240 1296 524Z" fill="#1B1116" fill-opacity=".68"/><path d="M0 414 1440 332V524H0Z" fill="#09090B" fill-opacity=".66"/><rect y="84" width="1440" height="440" filter="url(#grain)" opacity=".4"/>
  <circle cx="146" cy="379" r="74" fill="#09090B" stroke="#FFF" stroke-opacity=".25" stroke-width="3"/><circle cx="146" cy="379" r="66" fill="url(#avatarA)"/><circle cx="198" cy="431" r="8" fill="#B8D86D" stroke="#09090B" stroke-width="3"/><circle cx="196" cy="326" r="17" fill="#15151A" stroke="#FFF" stroke-opacity=".22"/><path d="M188 326h16m-8-8v16" stroke="#F4F0E8" stroke-width="1.5"/>
  <text x="252" y="367" fill="#F4F0E8" font-family="Bitstream Charter, DejaVu Serif" font-size="54">Hamza</text><text x="252" y="398" fill="#AAA7A1" font-family="DejaVu Sans" font-size="10">@hamza · Rabat, Morocco · Joined 2024</text><text x="252" y="433" fill="#D0CBC3" font-family="DejaVu Sans" font-size="13">Chasing films that feel like memories I never had.</text><g font-family="DejaVu Sans" font-size="9"><text x="252" y="472" fill="#F4F0E8" font-weight="800">284</text><text x="281" y="472" fill="#77736E">films</text><text x="330" y="472" fill="#F4F0E8" font-weight="800">39</text><text x="354" y="472" fill="#77736E">series</text><text x="408" y="472" fill="#F4F0E8" font-weight="800">23</text><text x="432" y="472" fill="#77736E">lists</text><text x="477" y="472" fill="#F4F0E8" font-weight="800">186</text><text x="508" y="472" fill="#77736E">followers</text></g>
  <rect x="1003" y="386" width="124" height="48" rx="7" fill="#F4F0E8"/><text x="1065" y="416" text-anchor="middle" fill="#111114" font-family="DejaVu Sans" font-size="10" font-weight="900">EDIT PROFILE</text><rect x="1139" y="386" width="154" height="48" rx="7" fill="#17171B" stroke="#FFF" stroke-opacity=".16"/><text x="1216" y="416" text-anchor="middle" fill="#DDD8D1" font-family="DejaVu Sans" font-size="9" font-weight="800">PREVIEW AS VISITOR</text><rect x="1305" y="386" width="48" height="48" rx="7" fill="#17171B" stroke="#FFF" stroke-opacity=".16"/><path d="M1321 410h16m-8-8v16" stroke="#F4F0E8" stroke-width="1.4"/>
  <rect x="1003" y="452" width="350" height="46" rx="7" fill="#0D0D10" fill-opacity=".88" stroke="#FFF" stroke-opacity=".1"/><circle cx="1024" cy="475" r="5" fill="#B8D86D"/><text x="1038" y="472" fill="#D9D5CE" font-family="DejaVu Sans" font-size="9" font-weight="800">Public profile</text><text x="1038" y="487" fill="#77736E" font-family="DejaVu Sans" font-size="8">Visible in search · Activity sharing customized</text><text x="1329" y="480" text-anchor="end" fill="#FF5D38" font-family="DejaVu Sans" font-size="8" font-weight="800">MANAGE</text>

  <!-- tabs -->
  <rect y="524" width="1440" height="76" fill="#0C0C0F"/><line x1="0" y1="600" x2="1440" y2="600" stroke="#FFF" stroke-opacity=".1"/><g font-family="DejaVu Sans" font-size="11" font-weight="700"><text x="62" y="569" fill="#F4F0E8">Overview</text><text x="143" y="569" fill="#8F8B85">Diary</text><text x="201" y="569" fill="#8F8B85">Favorites</text><text x="282" y="569" fill="#8F8B85">Reviews</text><text x="354" y="569" fill="#8F8B85">Lists</text><text x="407" y="569" fill="#8F8B85">Friends</text></g><rect x="62" y="597" width="58" height="3" fill="#FF5D38"/>

  <!-- favorites -->
  <text x="62" y="674" fill="#F4F0E8" font-family="Bitstream Charter, DejaVu Serif" font-size="31">The four that explain me</text><text x="1378" y="671" text-anchor="end" fill="#FF5D38" font-family="DejaVu Sans" font-size="9" font-weight="800">EDIT FAVORITES</text>
  <g font-family="DejaVu Sans"><rect x="62" y="712" width="202" height="286" rx="8" fill="url(#p1)"/><circle cx="163" cy="798" r="25" fill="#EAC198"/><path d="M62 949 163 811 264 938V998H62Z" fill="#091015"/><rect x="76" y="727" width="43" height="22" rx="4" fill="#0B0B0E" fill-opacity=".8"/><text x="87" y="742" fill="#D8D4CD" font-size="8" font-weight="800">FILM</text><text x="62" y="1027" fill="#F4F0E8" font-size="12" font-weight="800">Northbound</text><text x="62" y="1046" fill="#85827E" font-size="8">2019 · ★★★★½</text>
  <rect x="282" y="712" width="202" height="286" rx="8" fill="url(#p2)"/><circle cx="383" cy="814" r="30" fill="#F0EBDD"/><path d="M282 950 484 825V998H282Z" fill="#17151D" fill-opacity=".72"/><rect x="296" y="727" width="51" height="22" rx="4" fill="#0B0B0E" fill-opacity=".8"/><text x="307" y="742" fill="#D8D4CD" font-size="8" font-weight="800">SERIES</text><text x="282" y="1027" fill="#F4F0E8" font-size="12" font-weight="800">Violet Hours</text><text x="282" y="1046" fill="#85827E" font-size="8">2022– · ★★★★½</text>
  <rect x="502" y="712" width="202" height="286" rx="8" fill="url(#p3)"/><circle cx="603" cy="826" r="45" fill="none" stroke="#FF5D38" stroke-width="4"/><circle cx="603" cy="826" r="18" fill="#D7B6A0"/><rect x="516" y="727" width="43" height="22" rx="4" fill="#0B0B0E" fill-opacity=".8"/><text x="527" y="742" fill="#D8D4CD" font-size="8" font-weight="800">FILM</text><text x="502" y="1027" fill="#F4F0E8" font-size="12" font-weight="800">Third Sun</text><text x="502" y="1046" fill="#85827E" font-size="8">2021 · ★★★★★</text>
  <rect x="722" y="712" width="202" height="286" rx="8" fill="url(#p4)"/><circle cx="823" cy="840" r="31" fill="#EFC195"/><path d="M722 950 924 865V998H722Z" fill="#10191D" fill-opacity=".75"/><rect x="736" y="727" width="51" height="22" rx="4" fill="#0B0B0E" fill-opacity=".8"/><text x="747" y="742" fill="#D8D4CD" font-size="8" font-weight="800">SERIES</text><text x="722" y="1027" fill="#F4F0E8" font-size="12" font-weight="800">Saltwater</text><text x="722" y="1046" fill="#85827E" font-size="8">2024– · ★★★★½</text></g>

  <!-- owner control rail -->
  <rect x="958" y="712" width="420" height="336" rx="8" fill="#121216" stroke="#FFF" stroke-opacity=".1"/><text x="984" y="752" fill="#F4F0E8" font-family="DejaVu Sans" font-size="12" font-weight="800">Owner view</text><text x="1352" y="752" text-anchor="end" fill="#A79CFF" font-family="DejaVu Sans" font-size="8" font-weight="800">ONLY YOU SEE THIS</text>
  <text x="984" y="806" fill="#85827E" font-family="DejaVu Sans" font-size="9" font-weight="700">PROFILE COMPLETION</text><text x="984" y="853" fill="#F4F0E8" font-family="Bitstream Charter, DejaVu Serif" font-size="42">92%</text><rect x="984" y="874" width="368" height="5" fill="#29292E"/><rect x="984" y="874" width="339" height="5" fill="#FF5D38"/><text x="984" y="911" fill="#85827E" font-family="DejaVu Sans" font-size="8">Add a profile link to complete your public identity.</text><rect x="984" y="936" width="178" height="42" rx="6" fill="#19191E" stroke="#FFF" stroke-opacity=".14"/><text x="1073" y="962" text-anchor="middle" fill="#D8D4CD" font-family="DejaVu Sans" font-size="8" font-weight="800">FINISH PROFILE</text><rect x="1174" y="936" width="178" height="42" rx="6" fill="#19191E" stroke="#FFF" stroke-opacity=".14"/><text x="1263" y="962" text-anchor="middle" fill="#D8D4CD" font-family="DejaVu Sans" font-size="8" font-weight="800">PRIVACY CONTROLS</text><line x1="984" y1="1001" x2="1352" y2="1001" stroke="#FFF" stroke-opacity=".08"/><text x="984" y="1027" fill="#77736E" font-family="DejaVu Sans" font-size="8">Last public preview · 3 days ago</text><text x="1352" y="1027" text-anchor="end" fill="#FF5D38" font-family="DejaVu Sans" font-size="8" font-weight="800">PREVIEW</text>

  <!-- diary -->
  <line x1="62" y1="1116" x2="1378" y2="1116" stroke="#FFF" stroke-opacity=".08"/><text x="62" y="1188" fill="#F4F0E8" font-family="Bitstream Charter, DejaVu Serif" font-size="31">Recent diary</text><text x="1378" y="1185" text-anchor="end" fill="#FF5D38" font-family="DejaVu Sans" font-size="9" font-weight="800">+ ADD DIARY ENTRY</text>
  <g font-family="DejaVu Sans"><rect x="62" y="1226" width="884" height="126" rx="8" fill="#121216" stroke="#FFF" stroke-opacity=".1"/><text x="86" y="1261" fill="#85827E" font-size="9" font-weight="800">26</text><text x="86" y="1277" fill="#66635F" font-size="7">AUG</text><rect x="132" y="1240" width="92" height="98" rx="5" fill="url(#p1)"/><circle cx="178" cy="1276" r="15" fill="#E9C198"/><path d="M132 1320 178 1278 224 1326V1338H132Z" fill="#091015"/><text x="252" y="1268" fill="#F4F0E8" font-size="12" font-weight="800">Atlas Motel</text><text x="252" y="1288" fill="#FF5D38" font-size="9">★★★★½</text><text x="252" y="1312" fill="#85827E" font-size="8">Rewatched · “Still hurts in exactly the right places.”</text><rect x="799" y="1256" width="118" height="40" rx="6" fill="#19191E" stroke="#FFF" stroke-opacity=".14"/><text x="858" y="1281" text-anchor="middle" fill="#D8D4CD" font-size="8" font-weight="800">EDIT ENTRY</text><text x="858" y="1322" text-anchor="middle" fill="#FF5D38" font-size="8" font-weight="800">VIEW REVIEW</text>
  <rect x="62" y="1368" width="884" height="126" rx="8" fill="#121216" stroke="#FFF" stroke-opacity=".1"/><text x="86" y="1403" fill="#85827E" font-size="9" font-weight="800">23</text><text x="86" y="1419" fill="#66635F" font-size="7">AUG</text><rect x="132" y="1382" width="92" height="98" rx="5" fill="url(#p4)"/><circle cx="178" cy="1420" r="15" fill="#EFC195"/><text x="252" y="1410" fill="#F4F0E8" font-size="12" font-weight="800">Sea of Names</text><text x="252" y="1430" fill="#FF5D38" font-size="9">★★★★★</text><text x="252" y="1454" fill="#85827E" font-size="8">Watched · With Yasmine and Omar</text><circle cx="457" cy="1451" r="11" fill="url(#avatarB)"/><circle cx="471" cy="1451" r="11" fill="url(#avatarC)"/><rect x="799" y="1398" width="118" height="40" rx="6" fill="#19191E" stroke="#FFF" stroke-opacity=".14"/><text x="858" y="1423" text-anchor="middle" fill="#D8D4CD" font-size="8" font-weight="800">EDIT ENTRY</text>
  <rect x="62" y="1510" width="884" height="126" rx="8" fill="#121216" stroke="#FFF" stroke-opacity=".1"/><text x="86" y="1545" fill="#85827E" font-size="9" font-weight="800">19</text><text x="86" y="1561" fill="#66635F" font-size="7">AUG</text><rect x="132" y="1524" width="92" height="98" rx="5" fill="url(#p2)"/><circle cx="178" cy="1562" r="20" fill="none" stroke="#D8C8E7" stroke-opacity=".52"/><text x="252" y="1552" fill="#F4F0E8" font-size="12" font-weight="800">The Returning</text><text x="252" y="1572" fill="#FF5D38" font-size="9">★★★½</text><text x="252" y="1596" fill="#85827E" font-size="8">First watch · Liked</text><rect x="799" y="1540" width="118" height="40" rx="6" fill="#19191E" stroke="#FFF" stroke-opacity=".14"/><text x="858" y="1565" text-anchor="middle" fill="#D8D4CD" font-size="8" font-weight="800">EDIT ENTRY</text></g>

  <!-- taste rail -->
  <rect x="974" y="1226" width="404" height="236" rx="8" fill="#121216" stroke="#FFF" stroke-opacity=".1"/><text x="1000" y="1265" fill="#F4F0E8" font-family="DejaVu Sans" font-size="12" font-weight="800">Taste signature</text><text x="1352" y="1265" text-anchor="end" fill="#FF5D38" font-family="DejaVu Sans" font-size="8" font-weight="800">EDIT</text><text x="1000" y="1315" fill="#D2CDC5" font-family="Bitstream Charter, DejaVu Serif" font-size="22"><tspan x="1000">Restless futures. Quiet dread.</tspan><tspan x="1000" dy="25">People trying to come home.</tspan></text><text x="1000" y="1392" fill="#85827E" font-family="DejaVu Sans" font-size="8" font-weight="700">MOST-LOVED WORLDS</text><rect x="1000" y="1410" width="91" height="32" rx="5" fill="#19191E"/><circle cx="1015" cy="1426" r="4" fill="#FF5D38"/><text x="1026" y="1430" fill="#D8D4CD" font-family="DejaVu Sans" font-size="8">Sci-fi</text><rect x="1101" y="1410" width="98" height="32" rx="5" fill="#19191E"/><circle cx="1116" cy="1426" r="4" fill="#A79CFF"/><text x="1127" y="1430" fill="#D8D4CD" font-family="DejaVu Sans" font-size="8">Mystery</text><rect x="1209" y="1410" width="143" height="32" rx="5" fill="#19191E"/><circle cx="1224" cy="1426" r="4" fill="#B8D86D"/><text x="1235" y="1430" fill="#D8D4CD" font-family="DejaVu Sans" font-size="8">Slow cinema</text>
  <rect x="974" y="1480" width="404" height="156" rx="8" fill="#121216" stroke="#FFF" stroke-opacity=".1"/><text x="1000" y="1519" fill="#F4F0E8" font-family="DejaVu Sans" font-size="12" font-weight="800">Rating rhythm</text><g fill="#9C3F2D"><rect x="1000" y="1590" width="30" height="18"/><rect x="1043" y="1573" width="30" height="35"/><rect x="1086" y="1548" width="30" height="60"/><rect x="1129" y="1528" width="30" height="80" fill="#C64C31"/><rect x="1172" y="1562" width="30" height="46"/><rect x="1215" y="1581" width="30" height="27"/><rect x="1258" y="1594" width="30" height="14"/><rect x="1301" y="1599" width="30" height="9"/></g><text x="1000" y="1624" fill="#66635F" font-family="DejaVu Sans" font-size="7">½</text><text x="1331" y="1624" text-anchor="end" fill="#66635F" font-family="DejaVu Sans" font-size="7">5</text>

  <!-- reviews -->
  <line x1="62" y1="1706" x2="1378" y2="1706" stroke="#FFF" stroke-opacity=".08"/><text x="62" y="1779" fill="#F4F0E8" font-family="Bitstream Charter, DejaVu Serif" font-size="31">Reviews that stayed with people</text><text x="1378" y="1776" text-anchor="end" fill="#FF5D38" font-family="DejaVu Sans" font-size="9" font-weight="800">MANAGE REVIEWS</text>
  <rect x="62" y="1817" width="642" height="300" rx="8" fill="#121216" stroke="#FFF" stroke-opacity=".1"/><rect x="62" y="1817" width="196" height="300" rx="8" fill="url(#p1)"/><circle cx="160" cy="1910" r="25" fill="#EAC198"/><path d="M62 2063 160 1923 258 2049V2117H62Z" fill="#091015"/><text x="288" y="1860" fill="#FF5D38" font-family="DejaVu Sans" font-size="9">★★★★½</text><text x="288" y="1903" fill="#F4F0E8" font-family="Bitstream Charter, DejaVu Serif" font-size="28">Atlas Motel</text><text x="288" y="1927" fill="#85827E" font-family="DejaVu Sans" font-size="8">Reviewed 26 August · 73 likes</text><text x="288" y="1980" fill="#C9C4BC" font-family="DejaVu Sans" font-size="11"><tspan x="288">Some movies explain loneliness.</tspan><tspan x="288" dy="20">This one leaves the door open</tspan><tspan x="288" dy="20">and lets it sit beside you.</tspan></text><rect x="288" y="2052" width="112" height="38" rx="6" fill="#19191E" stroke="#FFF" stroke-opacity=".14"/><text x="344" y="2076" text-anchor="middle" fill="#D8D4CD" font-family="DejaVu Sans" font-size="8" font-weight="800">EDIT REVIEW</text>
  <rect x="722" y="1817" width="656" height="300" rx="8" fill="#121216" stroke="#FFF" stroke-opacity=".1"/><rect x="722" y="1817" width="196" height="300" rx="8" fill="url(#p3)"/><circle cx="820" cy="1934" r="42" fill="none" stroke="#FF5D38" stroke-width="4"/><circle cx="820" cy="1934" r="16" fill="#D7B6A0"/><text x="948" y="1860" fill="#FF5D38" font-family="DejaVu Sans" font-size="9">★★★★★</text><text x="948" y="1903" fill="#F4F0E8" font-family="Bitstream Charter, DejaVu Serif" font-size="28">Third Sun</text><text x="948" y="1927" fill="#85827E" font-family="DejaVu Sans" font-size="8">Reviewed 14 August · 119 likes</text><text x="948" y="1980" fill="#C9C4BC" font-family="DejaVu Sans" font-size="11"><tspan x="948">I understood maybe half of it.</tspan><tspan x="948" dy="20">Unfortunately, the half I understood</tspan><tspan x="948" dy="20">changed my entire week.</tspan></text><rect x="948" y="2052" width="112" height="38" rx="6" fill="#19191E" stroke="#FFF" stroke-opacity=".14"/><text x="1004" y="2076" text-anchor="middle" fill="#D8D4CD" font-family="DejaVu Sans" font-size="8" font-weight="800">EDIT REVIEW</text>

  <!-- lists -->
  <text x="62" y="2212" fill="#F4F0E8" font-family="Bitstream Charter, DejaVu Serif" font-size="31">Your lists</text><text x="1378" y="2209" text-anchor="end" fill="#FF5D38" font-family="DejaVu Sans" font-size="9" font-weight="800">+ CREATE A LIST</text>
  <g font-family="DejaVu Sans"><rect x="62" y="2250" width="420" height="268" rx="8" fill="#121216" stroke="#FFF" stroke-opacity=".1"/><rect x="78" y="2266" width="92" height="126" rx="5" fill="url(#p1)"/><rect x="176" y="2266" width="92" height="126" rx="5" fill="url(#p3)"/><rect x="274" y="2266" width="92" height="126" rx="5" fill="url(#p5)"/><rect x="372" y="2266" width="94" height="126" rx="5" fill="url(#p2)"/><text x="86" y="2432" fill="#F4F0E8" font-family="Bitstream Charter, DejaVu Serif" font-size="21">Films that feel like a memory</text><text x="86" y="2456" fill="#85827E" font-size="8">18 titles · Public · 426 saves</text><text x="86" y="2492" fill="#A79CFF" font-size="8">Updated 4 days ago</text><text x="432" y="2492" fill="#FF5D38" font-size="8" font-weight="800">EDIT</text>
  <rect x="500" y="2250" width="420" height="268" rx="8" fill="#121216" stroke="#FFF" stroke-opacity=".1"/><rect x="516" y="2266" width="92" height="126" rx="5" fill="url(#p4)"/><rect x="614" y="2266" width="92" height="126" rx="5" fill="url(#p1)"/><rect x="712" y="2266" width="92" height="126" rx="5" fill="url(#p6)"/><rect x="810" y="2266" width="94" height="126" rx="5" fill="url(#p5)"/><text x="524" y="2432" fill="#F4F0E8" font-family="Bitstream Charter, DejaVu Serif" font-size="21">Movies for a quiet breakdown</text><text x="524" y="2456" fill="#85827E" font-size="8">12 titles · Private</text><text x="524" y="2492" fill="#85827E" font-size="8">Only you can see this</text><text x="870" y="2492" fill="#FF5D38" font-size="8" font-weight="800">EDIT</text>
  <rect x="938" y="2250" width="440" height="268" rx="8" fill="#121216" stroke="#FFF" stroke-opacity=".1"/><rect x="954" y="2266" width="97" height="126" rx="5" fill="url(#p2)"/><rect x="1057" y="2266" width="97" height="126" rx="5" fill="url(#p5)"/><rect x="1160" y="2266" width="97" height="126" rx="5" fill="url(#p4)"/><rect x="1263" y="2266" width="99" height="126" rx="5" fill="url(#p3)"/><text x="962" y="2432" fill="#F4F0E8" font-family="Bitstream Charter, DejaVu Serif" font-size="21">Beautifully strange and worth it</text><text x="962" y="2456" fill="#85827E" font-size="8">24 titles · Shared · 588 saves</text><circle cx="964" cy="2490" r="11" fill="url(#avatarB)"/><text x="983" y="2493" fill="#A79CFF" font-size="8">Collaborative with Yasmine</text><text x="1328" y="2492" fill="#FF5D38" font-size="8" font-weight="800">EDIT</text></g>

  <!-- circle and owner pulse -->
  <line x1="62" y1="2588" x2="1378" y2="2588" stroke="#FFF" stroke-opacity=".08"/><text x="62" y="2661" fill="#F4F0E8" font-family="Bitstream Charter, DejaVu Serif" font-size="31">Your circle</text><text x="1378" y="2658" text-anchor="end" fill="#FF5D38" font-family="DejaVu Sans" font-size="9" font-weight="800">MANAGE FRIENDS · 186</text>
  <g font-family="DejaVu Sans"><circle cx="92" cy="2720" r="27" fill="url(#avatarB)"/><text x="132" y="2715" fill="#F4F0E8" font-size="10" font-weight="800">Yasmine</text><text x="132" y="2732" fill="#85827E" font-size="8">91% overlap</text><circle cx="316" cy="2720" r="27" fill="url(#avatarC)"/><text x="356" y="2715" fill="#F4F0E8" font-size="10" font-weight="800">Omar</text><text x="356" y="2732" fill="#85827E" font-size="8">84% overlap</text><circle cx="510" cy="2720" r="27" fill="url(#avatarD)"/><text x="550" y="2715" fill="#F4F0E8" font-size="10" font-weight="800">Nadia</text><text x="550" y="2732" fill="#85827E" font-size="8">82% overlap</text><circle cx="704" cy="2720" r="27" fill="url(#avatarA)"/><text x="744" y="2715" fill="#F4F0E8" font-size="10" font-weight="800">Adam</text><text x="744" y="2732" fill="#85827E" font-size="8">79% overlap</text></g>
  <rect x="916" y="2676" width="462" height="156" rx="8" fill="#121216" stroke="#FFF" stroke-opacity=".1"/><text x="942" y="2712" fill="#F4F0E8" font-family="DejaVu Sans" font-size="11" font-weight="800">Profile pulse</text><text x="942" y="2756" fill="#FF5D38" font-family="Bitstream Charter, DejaVu Serif" font-size="30">+14</text><text x="1000" y="2750" fill="#85827E" font-family="DejaVu Sans" font-size="8">new followers this month</text><text x="942" y="2795" fill="#A79CFF" font-family="Bitstream Charter, DejaVu Serif" font-size="30">38</text><text x="994" y="2789" fill="#85827E" font-family="DejaVu Sans" font-size="8">people saved one of your lists</text><text x="1348" y="2805" text-anchor="end" fill="#FF5D38" font-family="DejaVu Sans" font-size="8" font-weight="800">VIEW ACTIVITY</text>

  <!-- footer -->
  <rect y="2904" width="1440" height="96" fill="#0C0C0F"/><line x1="0" y1="2904" x2="1440" y2="2904" stroke="#F4F0E8" stroke-opacity=".09"/><path d="M62 2948h31" stroke="#FF5D38" stroke-width="3"/><text x="104" y="2955" fill="#F4F0E8" font-family="Bitstream Charter, DejaVu Serif" font-size="22">Consumit</text><g fill="#85827E" font-family="DejaVu Sans" font-size="9"><text x="1031" y="2953">Help</text><text x="1080" y="2953">Privacy</text><text x="1144" y="2953">Terms</text><text x="1200" y="2953">Accessibility</text><text x="1291" y="2953">© 2026</text></g>
</svg>
